<svg width="500" height="500" xmlns="http://www.w3.org/2000/svg">
 <!-- Generator: Sketch 3.3.3 (12081) - http://www.bohemiancoding.com/sketch -->
 <title>react-logo</title>
 <desc>Created with Sketch.</desc>

 <g>
  <title>background</title>
  <rect fill="none" id="canvas_background" height="502" width="502" y="-1" x="-1"/>
 </g>
 <g>
  <title>Layer 1</title>
  <g stroke="null" fill-rule="evenodd" fill="none" id="Page-1">
   <g stroke="null" id="logo-(1)">
    <circle stroke-width="10" stroke="null" r="19.658649" cy="114.249607" cx="120.499995" fill="#00D8FF" id="Oval"/>
    <path stroke="#00D8FF" stroke-width="10" id="Shape" d="m120.499995,74.279456c26.394407,0 50.914135,3.787368 69.401897,10.152026c22.27513,7.668391 35.970784,19.292651 35.970784,29.818124c0,10.968671 -14.515043,23.317097 -38.435218,31.242551c-18.084926,5.991996 -41.882056,9.119464 -66.937463,9.119464c-25.688267,0 -50.013631,-2.935847 -68.298015,-9.185689c-23.138015,-7.908604 -37.074666,-20.417302 -37.074666,-31.176326c0,-10.440047 13.076509,-21.974178 35.038539,-29.631205c18.55673,-6.469286 43.681889,-10.338946 70.334142,-10.338946l0,0z"/>
    <path stroke="#00D8FF" stroke-width="10" id="Shape" d="m85.705195,94.37974c13.185839,-22.864494 28.716202,-42.213181 43.46558,-55.049086c17.771042,-15.465313 34.682727,-21.522359 43.800623,-16.264325c9.501924,5.479437 12.947978,24.222695 7.863539,48.903087c-3.844188,18.659791 -13.023216,40.836954 -25.540143,62.541922c-12.833161,22.253185 -27.528462,41.858544 -42.077205,54.575714c-18.410173,16.09308 -36.208254,21.916574 -45.528745,16.541764c-9.043834,-5.215713 -12.50282,-22.305303 -8.164099,-45.15569c3.66589,-19.30715 12.865686,-43.005139 26.180449,-66.093387l0,0z"/>
    <path stroke="#00D8FF" stroke-width="10" id="Shape" d="m85.738503,134.569334c-13.22385,-22.842549 -22.230849,-45.960579 -25.9853,-65.149386c-4.523681,-23.119597 -1.325285,-40.796592 7.783991,-46.069909c9.492519,-5.495504 27.452048,0.879343 46.294839,17.610378c14.246616,12.649377 28.875691,31.677128 41.429061,53.361327c12.870389,22.231633 22.51691,44.754421 26.26901,63.710069c4.748219,23.987185 0.904814,42.315066 -8.406663,47.70555c-9.035213,5.230604 -25.568749,-0.307222 -43.19872,-15.478245c-14.895935,-12.818271 -30.832661,-32.623872 -44.186218,-55.689784l0,0z"/>
   </g>
  </g>
  <path stroke="null" id="svg_6" d="m493.347057,411.687314l-7.170611,-4.140208c1.204187,-5.989612 1.813604,-11.98736 1.813604,-17.860215c0,-5.958287 -0.599653,-11.961731 -1.783499,-17.878115l7.140506,-4.122715c2.211474,-1.276601 3.793597,-3.338366 4.454273,-5.804916s0.321795,-5.042942 -0.955214,-7.254416l-19.527363,-33.822614c-1.277008,-2.211474 -3.338366,-3.793597 -5.804916,-4.454273c-2.466957,-0.660676 -5.042942,-0.321795 -7.254822,0.955214l-7.146201,4.125969c-9.026931,-7.941535 -19.65063,-14.087772 -30.959414,-17.911881l0,-8.214511c0,-5.271574 -4.288697,-9.560272 -9.560272,-9.560272l-39.054727,0c-5.271574,0 -9.560272,4.288697 -9.560272,9.560272l0,8.214918c-11.248575,3.80865 -21.857629,9.963024 -30.917919,17.935883l-7.188104,-4.150378c-2.211881,-1.277008 -4.788272,-1.616296 -7.254822,-0.955214c-2.46655,0.661083 -4.527907,2.242799 -5.804916,4.454273l-19.527363,33.822614c-1.277008,2.211474 -1.615889,4.787865 -0.955214,7.254416s2.242799,4.528314 4.454273,5.804916l7.170611,4.140208c-1.203374,5.989612 -1.813197,11.98736 -1.813197,17.860622c0,5.957473 0.599653,11.960917 1.783499,17.877708l-7.140506,4.122715c-4.565335,2.635787 -6.134847,8.493996 -3.499466,13.059738l19.527363,33.822614c2.635787,4.564928 8.493996,6.134847 13.059738,3.499059l7.145795,-4.125969c9.027337,7.941535 19.65063,14.087772 30.960228,17.912288l0,8.214104c0,5.271574 4.288697,9.560272 9.560272,9.560272l39.054727,0c5.271574,0 9.560272,-4.288697 9.560272,-9.560272l0,-8.214918c11.248982,-3.80865 21.858036,-9.963024 30.918325,-17.935476l7.187697,4.149972c4.564928,2.635787 10.423951,1.065869 13.059738,-3.499059l19.527363,-33.822614c2.63538,-4.565742 1.065869,-10.423951 -3.499466,-13.059738zm-1.785533,10.008587l-19.527363,33.822207c-0.953179,1.651689 -3.072305,2.219203 -4.723588,1.265617l-9.109515,-5.25937c-1.157403,-0.668405 -2.615853,-0.505271 -3.597103,0.402345c-9.313332,8.613601 -20.518784,15.112552 -32.404439,18.79468c-1.277415,0.395836 -2.148417,1.577241 -2.148417,2.914459l0,10.433308c0,1.906766 -1.551205,3.457971 -3.457971,3.457971l-39.054727,0c-1.906766,0 -3.457971,-1.551205 -3.457971,-3.457971l0,-10.432901c0,-1.337218 -0.871002,-2.518623 -2.14801,-2.914459c-11.958883,-3.70491 -23.178167,-10.195725 -32.445935,-18.770271c-0.578091,-0.534968 -1.322165,-0.811606 -2.072748,-0.811606c-0.523171,0 -1.049189,0.134251 -1.524762,0.408854l-9.068019,5.234961c-1.651689,0.953179 -3.770408,0.385665 -4.723588,-1.265617l-19.527363,-33.822207c-0.953179,-1.651283 -0.385259,-3.770408 1.265617,-4.723995l9.060697,-5.231299c1.156996,-0.667999 1.744851,-2.010505 1.45072,-3.313956c-1.3958,-6.186513 -2.10326,-12.491817 -2.10326,-18.73976c0,-6.142983 0.718037,-12.442185 2.134585,-18.722673c0.293724,-1.303045 -0.294131,-2.645958 -1.45072,-3.313549l-9.092022,-5.249199c-0.799808,-0.461741 -1.371797,-1.207442 -1.611007,-2.099598c-0.238803,-0.892156 -0.116351,-1.824181 0.34539,-2.623989l19.527363,-33.822614c0.461741,-0.799808 1.207442,-1.372204 2.100005,-1.611007c0.89175,-0.23921 1.824181,-0.116351 2.623989,0.34539l9.109515,5.25937c1.15781,0.668812 2.615853,0.505271 3.597103,-0.402345c9.313739,-8.613601 20.518784,-15.112552 32.404439,-18.79468c1.277415,-0.395836 2.148417,-1.577241 2.148417,-2.914459l0,-10.432901c0,-1.906766 1.551205,-3.457971 3.457971,-3.457971l39.054727,0c1.906766,0 3.457971,1.551205 3.457971,3.457971l0,10.432901c0,1.337218 0.871002,2.518623 2.14801,2.914459c11.958476,3.704504 23.17776,10.195318 32.445935,18.770271c0.98125,0.908022 2.4397,1.071157 3.59751,0.402752l9.068019,-5.235367c0.800215,-0.461741 1.73224,-0.5846 2.623989,-0.34539c0.892156,0.23921 1.637858,0.811199 2.100005,1.611007l19.527363,33.822614c0.461741,0.799808 0.5846,1.731833 0.34539,2.623989c-0.23921,0.892156 -0.811199,1.637858 -1.611007,2.099598l-9.060697,5.231299c-1.156996,0.667999 -1.744851,2.010912 -1.45072,3.313956c1.3958,6.186106 2.10326,12.491003 2.10326,18.740167c0,6.142983 -0.718037,12.442185 -2.134585,18.722266c-0.293724,1.303045 0.294131,2.645551 1.45072,3.313549l9.092022,5.249199c1.650469,0.953586 2.21839,3.072712 1.264804,4.723995z"/>
  <path stroke="null" id="svg_7" d="m397.065764,328.053651c-33.984935,0 -61.633241,27.648712 -61.633241,61.633241s27.648306,61.633241 61.633241,61.633241s61.633241,-27.648712 61.633241,-61.633241s-27.648306,-61.633241 -61.633241,-61.633241zm0,117.16418c-30.619719,0 -55.53094,-24.91122 -55.53094,-55.53094s24.91122,-55.53094 55.53094,-55.53094s55.53094,24.91122 55.53094,55.53094s-24.91122,55.53094 -55.53094,55.53094z"/>
  <path stroke="null" id="svg_8" d="m408.456726,373.617499l-11.390962,0c-1.685049,0 -3.051151,1.366102 -3.051151,3.051151l0,26.036485c0,1.685049 1.366102,3.051151 3.051151,3.051151s3.051151,-1.366102 3.051151,-3.051151l0,-6.712531l8.339811,0c6.16902,0 11.187552,-5.018532 11.187552,-11.187552s-5.018532,-11.187552 -11.187552,-11.187552zm0,16.272803l-8.339811,0l0,-10.170502l8.339811,0c2.804211,0 5.085251,2.28104 5.085251,5.085251s-2.28104,5.085251 -5.085251,5.085251z"/>
  <path stroke="null" id="svg_9" d="m380.395091,375.597492c-0.446688,-1.190762 -1.584971,-1.979993 -2.856691,-1.979993l-3.254561,0c-1.27172,0 -2.410409,0.788824 -2.856691,1.979993l-9.763682,26.036485c-0.591923,1.577648 0.207885,3.336331 1.785533,3.928255c1.577648,0.591923 3.336331,-0.207885 3.928255,-1.785533l1.698067,-4.529535l13.671188,0l1.698474,4.529128c0.4593,1.224935 1.621992,1.980807 2.857097,1.980807c0.355968,0 0.718037,-0.06265 1.07075,-0.194867c1.577648,-0.591516 2.377456,-2.350606 1.785533,-3.928255l-9.763275,-26.036485zm-9.031406,17.54737l4.547435,-12.126086l4.547435,12.126086l-9.09487,0z"/>
  <path stroke="null" id="svg_10" d="m426.356809,373.617499c-1.685049,0 -3.051151,1.366102 -3.051151,3.051151l0,26.036485c0,1.685049 1.366102,3.051151 3.051151,3.051151s3.051151,-1.366102 3.051151,-3.051151l0,-26.036485c0,-1.685049 -1.366102,-3.051151 -3.051151,-3.051151z"/>
  <path stroke="null" id="svg_11" d="m418.892475,321.259756c2.117498,0.674914 4.228488,1.458857 6.273572,2.329452c0.389734,0.165983 0.794926,0.244499 1.19361,0.244499c1.186287,0 2.314806,-0.696476 2.808686,-1.856727c0.659862,-1.550391 -0.061837,-3.342434 -1.612228,-4.002296c-2.220424,-0.945043 -4.511635,-1.796111 -6.810982,-2.528794c-1.604905,-0.51178 -3.321686,0.375088 -3.833466,1.9804c-0.511373,1.605312 0.375495,3.321686 1.980807,3.833466z"/>
  <path stroke="null" id="svg_12" d="m333.988312,424.024133c-0.807131,-1.479198 -2.66101,-2.024337 -4.139801,-1.217206c-1.479198,0.807131 -2.024337,2.660603 -1.217206,4.139801c1.266024,2.320502 2.667519,4.603169 4.165431,6.784538c0.591516,0.861238 1.546323,1.324199 2.517809,1.324199c0.595178,0 1.196458,-0.173712 1.72451,-0.536189c1.389291,-0.953993 1.742004,-2.853436 0.78801,-4.24232c-1.380341,-2.010505 -2.671994,-4.114171 -3.838754,-6.252824z"/>
  <path stroke="null" id="svg_13" d="m390.817008,461.22254c-16.349692,-1.408818 -31.869064,-8.493996 -43.698985,-19.950863c-1.210697,-1.172455 -3.142278,-1.14113 -4.314327,0.069159c-1.172049,1.210697 -1.141537,3.142278 0.069159,4.314327c12.835173,12.430387 29.676304,20.118066 47.420168,21.646896c0.089094,0.00773 0.177374,0.011391 0.265247,0.011391c1.566664,0 2.899407,-1.199712 3.036505,-2.789158c0.144421,-1.67854 -1.099228,-3.156924 -2.777767,-3.301752z"/>
  <path stroke="null" id="svg_14" d="m440.97182,325.322668c-1.391325,-0.950739 -3.289954,-0.59355 -4.240692,0.797367c-0.950739,1.391325 -0.59355,3.289954 0.797367,4.240692c14.175239,9.687606 24.429138,24.103276 28.872834,40.590879c0.366952,1.36122 1.598803,2.257851 2.944157,2.257851c0.262806,0 0.530087,-0.034173 0.79574,-0.105773c1.62728,-0.438552 2.59063,-2.113023 2.152078,-3.739897c-4.821631,-17.891947 -15.945313,-33.532551 -31.321484,-44.04112z"/>
  <g stroke="null" transform="matrix(0.4068200707619363,0,0,0.4068200707619363,-2618.698103130033,-810.2540529573473) " id="svg_15"/>
  <g stroke="null" transform="matrix(0.4068200707619363,0,0,0.4068200707619363,-2618.698103130033,-810.2540529573473) " id="svg_16"/>
  <g stroke="null" transform="matrix(0.4068200707619363,0,0,0.4068200707619363,-2618.698103130033,-810.2540529573473) " id="svg_17"/>
  <g stroke="null" transform="matrix(0.4068200707619363,0,0,0.4068200707619363,-2618.698103130033,-810.2540529573473) " id="svg_18"/>
  <g stroke="null" transform="matrix(0.4068200707619363,0,0,0.4068200707619363,-2618.698103130033,-810.2540529573473) " id="svg_19"/>
  <g stroke="null" transform="matrix(0.4068200707619363,0,0,0.4068200707619363,-2618.698103130033,-810.2540529573473) " id="svg_20"/>
  <g stroke="null" transform="matrix(0.4068200707619363,0,0,0.4068200707619363,-2618.698103130033,-810.2540529573473) " id="svg_21"/>
  <g stroke="null" transform="matrix(0.4068200707619363,0,0,0.4068200707619363,-2618.698103130033,-810.2540529573473) " id="svg_22"/>
  <g stroke="null" transform="matrix(0.4068200707619363,0,0,0.4068200707619363,-2618.698103130033,-810.2540529573473) " id="svg_23"/>
  <g stroke="null" transform="matrix(0.4068200707619363,0,0,0.4068200707619363,-2618.698103130033,-810.2540529573473) " id="svg_24"/>
  <g stroke="null" transform="matrix(0.4068200707619363,0,0,0.4068200707619363,-2618.698103130033,-810.2540529573473) " id="svg_25"/>
  <g stroke="null" transform="matrix(0.4068200707619363,0,0,0.4068200707619363,-2618.698103130033,-810.2540529573473) " id="svg_26"/>
  <g stroke="null" transform="matrix(0.4068200707619363,0,0,0.4068200707619363,-2618.698103130033,-810.2540529573473) " id="svg_27"/>
  <g stroke="null" transform="matrix(0.4068200707619363,0,0,0.4068200707619363,-2618.698103130033,-810.2540529573473) " id="svg_28"/>
  <g stroke="null" transform="matrix(0.4068200707619363,0,0,0.4068200707619363,-2618.698103130033,-810.2540529573473) " id="svg_29"/>
  <text stroke="#000" transform="matrix(3.7911009911212257,0,0,3.7911009911212257,-3642.685364262734,-669.2994570240373) " xml:space="preserve" text-anchor="start" font-family="Helvetica, Arial, sans-serif" font-size="24" id="svg_31" y="251.196812" x="1020.658891" stroke-width="0" fill="#000000">+</text>
  <text stroke="#000" transform="matrix(2.3326826095581055,0,0,2.3326826095581055,-708.320806980133,-475.1013503074646) " xml:space="preserve" text-anchor="start" font-family="Helvetica, Arial, sans-serif" font-size="24" id="svg_32" y="411.509206" x="308.089914" stroke-width="0" fill="#000000">Part One</text>
 </g>
</svg>