<svg width="300" height="300" xmlns="http://www.w3.org/2000/svg" preserveAspectRatio="xMinYMin meet">
 <defs>
  <radialGradient id="a" fy="50%" fx="50%">
   <stop offset="0%" stop-color="#93B4E7"/>
   <stop offset="59.273%" stop-color="#B9D1F8"/>
   <stop offset="100%" stop-color="#9CB6E0"/>
  </radialGradient>
 </defs>
 <g>
  <title>background</title>
  <rect fill="none" id="canvas_background" height="302" width="302" y="-1" x="-1"/>
 </g>
 <g>
  <title>Layer 1</title>
  <g stroke="null" id="svg_6">
   <path stroke="null" id="svg_1" fill="none" d="m148.962064,26.456988c-52.305785,36.133286 -48.8655,33.545096 -104.468472,61.371321c-2.79101,63.949265 -4.066739,64.78845 -2.21395,127.00462c57.014803,30.445066 53.575766,30.389176 109.763794,58.849433c48.522745,-30.780407 51.410876,-27.948416 107.644549,-60.669403c-5.265754,-63.913365 -2.22278,-64.289687 -0.659354,-121.383785c-58.458202,-32.850675 -57.634092,-29.763806 -110.877683,-65.594901"/>
   <path stroke="url(#a)" id="svg_2" fill="none" stroke-opacity="0.808" stroke-linejoin="round" stroke-linecap="round" stroke-width="1.5257" d="m45.016594,88.453928c-0.812698,1.60349 -1.303965,5.093668 0.794623,0.953215c1.86295,-3.675674 4.220249,-5.676309 0.834271,1.004107c-3.390476,6.689329 -3.77521,10.111706 0.83727,1.011354c4.210587,-8.307395 6.907059,-10.682685 0.924562,1.120635c-5.620669,11.089492 -6.710402,15.90446 0.83577,1.016018c7.274634,-14.352779 9.676579,-16.429128 0.834105,1.017018c-8.766011,17.295134 -8.438749,19.623696 0.930809,1.137711c10.115371,-19.957455 12.836664,-22.289433 0.9498,1.163199c-11.41742,22.526404 -12.429274,27.418251 0.905071,1.109724c13.203157,-26.049733 15.115917,-26.871927 0.922646,1.131297c-13.474945,26.585729 -14.130467,30.836797 0.924895,1.13263c16.065217,-31.696389 18.780596,-34.192872 0.895825,1.093648c-17.023429,33.58691 -16.907817,36.149445 0.875418,1.063329c17.387756,-34.305986 21.990075,-40.361698 0.951549,1.146956c-19.544067,38.560135 -18.791924,39.616718 0.80237,0.957379c19.588796,-38.648427 22.889898,-42.393901 0.878334,1.034593c-22.692908,44.772773 -23.338935,48.876578 0.903488,1.046504c24.029025,-47.409023 27.115978,-50.880544 0.842684,0.95638c-22.996597,45.371906 -23.822789,49.875271 0.932475,1.033427c26.415726,-52.117791 29.787711,-55.798546 0.974788,1.048919c-25.645258,50.597678 -28.115837,58.417471 0.977287,1.017018c29.933309,-59.058084 31.849317,-60.004968 0.951799,0.95538c-31.576196,62.299464 -29.519921,60.996748 0.936723,0.90607c33.000688,-65.109965 35.9268,-67.840087 1.048753,0.973705c-33.542014,66.178042 -32.682339,67.590872 1.086901,0.964543c33.864861,-66.81499 34.312233,-64.816854 1.021183,0.866006c-35.627859,70.293341 -37.52471,76.629253 0.930975,0.756808c35.744137,-70.522815 41.48125,-78.841621 1.09065,0.848681c-40.186364,79.287077 -40.515208,82.49364 0.940887,0.701168c39.317526,-77.572973 44.294167,-84.32194 1.142625,0.815447c-43.855458,86.526311 -43.368606,88.293723 1.026763,0.702167c41.950528,-82.767843 44.435433,-84.898916 1.053667,0.692921c-41.454763,81.78964 -45.474441,92.670315 1.131797,0.716827c43.667547,-86.155487 45.601547,-86.875479 1.198265,0.731736c-46.98714,92.705132 -43.649139,89.206624 1.204429,0.71108c49.899842,-98.451824 51.107353,-98.272409 1.005607,0.577643c-45.983199,90.724321 -45.469443,92.484986 1.094648,0.614625c54.038131,-106.61662 53.288403,-102.331151 1.112389,0.611543c-51.460269,101.530281 -55.812206,112.878151 1.098979,0.593219c55.006838,-108.527797 59.717105,-114.809486 1.20268,0.638864c-51.02914,100.679768 -52.108379,105.565785 1.10406,0.578226c54.372389,-107.275974 60.567702,-116.988452 1.007939,0.522169c-61.144262,120.636889 -60.853982,123.000602 1.32204,0.328094c61.099366,-120.548431 59.619651,-115.001811 1.544934,-0.421134c-57.535139,113.516099 -57.430022,115.946197 1.551764,-0.424382c61.427544,-121.195708 64.619614,-124.881127 1.537854,-0.42155c-55.816204,110.124623 -61.485433,123.960314 1.560593,-0.428713c62.580414,-123.470379 66.37803,-128.302672 1.56684,-0.430962c-65.504944,129.24056 -64.066376,129.496606 1.822719,-0.501845c66.065345,-130.346036 64.313009,-124.140728 1.618816,-0.445955c-66.363204,130.933758 -58.42705,117.858956 1.445065,-0.26804c59.576838,-117.544439 60.292665,-115.95944 1.163448,0.701834c-67.363063,132.906572 -63.444254,128.172567 1.163698,0.701834c63.136234,-124.567026 66.679054,-128.702399 1.108141,0.668267c-64.841509,127.931514 -62.895598,126.901003 1.090316,0.657438c65.186095,-128.611275 64.031643,-123.743417 1.005607,0.606296c-67.65026,133.47297 -64.472684,130.313468 1.207261,0.727738c59.529277,-117.450567 61.789955,-118.921703 1.160533,0.699335c-63.567613,125.418123 -63.774181,128.611858 1.08182,0.651858c64.478347,-127.215021 62.542599,-120.770409 1.019517,0.614042c-60.460419,119.287446 -64.063794,129.421141 1.174277,0.707165c58.985202,-116.377159 63.732285,-122.822437 1.134212,0.682843c-60.53505,119.435043 -63.36979,127.677218 1.028929,0.619206c63.327726,-124.944764 61.600379,-118.846488 1.044921,0.628619c-65.73192,129.688348 -59.483882,120.245492 1.120469,0.673847c62.03942,-122.402969 66.987158,-129.255303 1.130297,0.679345c-66.998736,132.18783 -64.272362,129.570904 1.073324,0.644694c60.065106,-118.507649 62.472632,-120.552013 1.051335,0.631367c-60.251601,118.875808 -59.514034,119.991779 0.99936,0.599716c64.270196,-126.804382 65.158775,-126.02092 0.985949,0.59122c-66.5118,131.226952 -62.547513,126.250811 1.106142,0.662852c64.082119,-126.433391 64.863665,-124.94493 1.178275,0.705582c-63.103999,124.503473 -60.329398,121.849315 1.096813,0.656189c62.818801,-123.94074 62.13779,-119.870669 1.060581,0.633866c-66.306814,130.82256 -61.634529,124.608923 1.169112,0.698002c59.700862,-117.78899 60.435014,-116.34051 1.127549,0.672348c-65.296293,128.828922 -59.595912,120.337115 1.072575,0.63878c64.100943,-126.470457 60.12716,-115.751705 1.121052,0.666684c-67.493835,133.164367 -60.187715,121.400777 1.032844,0.613376c61.122688,-120.594243 68.61397,-132.475027 1.130048,0.669932c-66.739026,131.675323 -59.345614,119.977119 1.126383,0.666601c67.20772,-132.600051 62.18177,-119.983116 1.053501,0.622205c-64.305513,126.874016 -60.482908,121.978587 1.032844,0.608878c64.887903,-128.023138 67.249367,-129.966716 1.060247,0.623621c-64.193732,126.653454 -63.089673,127.371613 1.131464,0.664019c64.043637,-126.357261 61.975617,-119.490016 1.089483,0.637614c-60.593773,119.550821 -66.150222,133.029181 0.983867,0.574478c65.939821,-130.098404 60.674234,-116.78355 1.145124,0.666601c-65.034834,128.313083 -62.840374,127.045434 1.199348,0.69592c61.798868,-121.928527 59.097149,-113.915909 1.051252,0.607962c-59.968486,118.316989 -62.187767,125.43828 1.07574,0.620123c61.858173,-122.045222 61.67451,-119.039897 1.037591,0.595967c-64.190734,126.647456 -61.512587,123.993548 1.033177,0.59147c60.034371,-118.447178 64.063961,-123.287883 1.222587,0.697253c-59.807562,117.999723 -62.07532,125.380557 1.143958,0.649692c62.963316,-124.225938 63.341053,-122.243128 1.074491,0.607878c-66.369368,130.946085 -58.934559,119.173167 1.141792,0.643362c62.948489,-124.196618 63.260175,-122.161583 1.045671,0.586972c-58.841686,116.093877 -63.757772,128.852828 1.208344,0.675513c65.30329,-128.842666 58.714247,-113.312945 0.999859,0.556819c-62.780236,123.864609 -65.379337,131.531308 1.004274,0.557319c59.877862,-118.138407 60.906124,-117.539858 1.040007,0.575311c-59.802398,117.989395 -63.640328,128.374971 1.114555,0.614292c60.126661,-118.629175 67.161909,-129.752401 1.093065,0.600465c-60.159812,118.694727 -57.809676,116.655444 1.030595,0.564316c61.961124,-122.248709 63.329642,-121.987166 1.175776,0.641862c-59.370769,117.137632 -60.049281,121.011795 1.007106,0.54824c59.680872,-117.749675 62.372263,-120.547432 0.998527,0.542243c-61.238217,120.822218 -58.85493,119.023071 1.154453,0.625204c61.147843,-120.643719 63.315149,-122.367569 1.015519,0.54874c-64.893401,128.033882 -59.462059,120.123633 1.116804,0.602214c66.708374,-131.614935 65.394746,-125.914054 1.23808,0.666184c-65.431562,129.095796 -59.60674,120.564424 1.179607,0.633533c63.654655,-125.589875 61.946131,-119.374321 1.133713,0.607712c-58.21615,114.859878 -62.266729,125.5718 1.084486,0.580558c59.892772,-118.16781 63.153309,-121.515723 1.23025,0.657605c-61.144262,120.636973 -62.587661,126.260307 1.107225,0.591136c59.871781,-118.126246 61.915146,-119.097869 1.220921,0.651108c-64.207642,126.680774 -65.469628,131.863567 1.074657,0.572562c62.615064,-123.53893 65.011511,-125.154914 1.242161,0.66127c-61.611873,121.559369 -62.572334,126.00826 1.019517,0.542243c59.566759,-117.524282 59.993807,-115.729466 1.053084,0.559901c-63.364959,125.018312 -66.056932,132.860178 1.010521,0.536995c61.059802,-120.470218 62.216337,-119.685341 1.224586,0.650525c-65.636798,129.500687 -57.508069,116.117116 1.060081,0.562817c64.652432,-127.558441 60.32465,-116.351921 1.065578,0.565565c-62.591242,123.491786 -61.755888,124.435505 1.035259,0.549323c62.008102,-122.341331 64.370315,-124.204698 1.11722,0.592802c-57.90688,114.249668 -61.4148,124.00346 1.131547,0.600215c64.216722,-126.698849 65.392081,-126.110711 1.161283,0.615958c-66.696879,131.592029 -57.493242,116.308608 1.148539,0.609128c64.436201,-127.13181 66.058682,-127.586761 1.09698,0.581807c-58.393066,115.208713 -64.625195,130.394263 1.154286,0.61221c66.513799,-131.231117 61.923975,-119.659436 1.005024,0.532997c-64.845423,127.939344 -59.239415,119.615957 1.093482,0.579975c59.935501,-118.25202 64.681501,-124.688219 1.169446,0.620289c-66.210859,130.63315 -57.642338,116.809787 1.231083,0.65319c59.268901,-116.936727 66.170462,-127.517711 1.212675,0.643362c-66.219439,130.650142 -56.788577,114.665637 1.047503,0.55582c59.007858,-116.421721 66.113239,-127.417591 1.207428,0.640863c-62.586411,123.48229 -59.444651,119.961293 1.069493,0.567648c61.121189,-120.591411 58.426633,-112.324247 1.502038,-0.012744c-61.834268,121.998327 -61.300604,123.51919 1.467804,-0.322181c62.34361,-123.003268 65.004681,-125.179652 1.75017,-0.379237c-61.024818,120.401168 -58.013996,117.434324 1.690032,-0.360912c55.684017,-109.863997 60.973759,-117.675877 1.489127,-0.313435c-56.217597,110.916748 -59.843711,120.902763 1.603823,-0.332509c62.355271,-123.026173 57.869647,-111.546033 1.486712,-0.30319c-55.865431,110.221827 -55.257719,111.860217 1.600741,-0.320848c61.017988,-120.387758 56.277319,-108.219277 1.584832,-0.311602c-57.53439,113.514516 -54.504993,110.171601 1.479632,-0.285198c58.448956,-115.318994 57.961354,-111.423424 1.477383,0.018824c-54.157657,106.852425 -49.008515,99.599696 1.007023,0.919647c56.600083,-111.671223 53.706538,-103.078297 0.991946,0.92706c-50.231519,99.106097 -50.531127,102.276761 0.880832,0.841601c47.803003,-94.314702 52.615139,-100.756898 1.034343,1.011437c-46.956071,92.643828 -49.819464,101.335457 1.022265,1.025347c48.914643,-96.508079 47.892294,-91.828048 0.887829,0.911401c-47.458,93.634025 -44.628841,90.708578 0.879083,0.92198c48.698912,-96.082531 46.210592,-88.346532 0.928476,0.994362c-42.400315,83.655256 -44.327984,90.376569 0.951715,1.04034c39.964886,-78.850284 42.338594,-80.536234 0.971206,1.081154c-41.520315,81.919329 -37.627994,77.282694 0.980618,1.108308c41.427026,-81.734999 36.794889,-69.963497 0.845183,0.964793c-41.18714,81.261641 -38.744465,79.267253 0.905654,1.038091c35.4357,-69.914104 39.339932,-74.628119 0.958962,1.09698c-34.740363,68.542337 -32.73648,67.684161 0.996777,1.128965c35.858916,-70.749291 35.641436,-67.275105 0.987115,1.097313c-34.413435,67.89731 -29.984951,61.782209 0.857593,0.930142c33.678783,-66.44783 32.812777,-61.783375 0.97712,1.028096c-29.996612,59.183025 -27.409838,56.641813 0.857177,0.871337c31.101338,-61.362575 26.666357,-49.508278 1.051835,1.028929c-25.907967,51.116099 -27.179697,56.323464 0.926561,0.870087c26.94231,-53.156882 27.628068,-51.59329 1.014269,0.915399c-24.74785,48.827268 -24.165793,50.558364 1.013936,0.879083c22.710316,-44.807257 23.830369,-44.16806 1.014769,0.846932c-21.421178,42.263629 -20.978054,44.049616 0.957213,0.771634c19.952707,-39.366336 21.637742,-40.071502 0.951049,0.743064c-19.568806,38.609112 -17.516029,37.489893 1.073408,0.813115c18.681143,-36.857859 19.691831,-35.792781 1.129881,0.82969c-18.739865,36.973554 -14.269068,30.995888 1.058248,0.755392c15.80584,-31.184799 16.893074,-30.250325 1.154203,0.80237c-16.07238,31.710633 -12.091767,26.521426 1.004857,0.68201c13.642865,-26.917239 13.439462,-23.424561 1.172361,0.778131c-12.946362,25.54289 -9.825342,21.905198 0.960545,0.62487c12.282843,-24.233927 12.304666,-21.698546 0.987032,0.630951c-11.137137,21.973332 -9.169986,20.734337 1.015519,0.638447c9.691655,-19.121518 8.972496,-14.679041 1.166947,0.721325c-8.633407,17.033591 -6.24962,15.131326 1.085319,0.659687c6.882737,-13.579645 6.771206,-10.53892 1.096647,0.656939c-5.613589,11.075499 -3.104028,9.108348 1.164198,0.687174c4.600985,-9.07778 4.512611,-6.15225 1.076656,0.626953c-3.378232,6.665257 -1.205595,5.131234 1.080238,0.621372c2.131489,-4.20534 2.121744,-1.445148 1.078489,0.613126"/>
   <path stroke="null" id="svg_3" fill="none" d="m149.207198,91.786265c-26.948474,14.281979 -26.37383,14.953577 -53.15355,30.369352c-0.021823,30.324373 1.675872,28.375131 2.129407,58.845851c26.818119,15.739371 26.94306,16.459863 51.871991,29.974372c25.435025,-13.786547 26.962634,-12.151239 53.466735,-27.745179c0.403142,-30.586832 -0.592469,-32.891323 -1.626729,-61.331006c-26.773973,-16.018822 -24.895031,-17.067991 -51.409627,-32.471689"/>
   <path stroke="#6f95db" id="svg_4" fill="none" stroke-opacity="0.8046" stroke-linejoin="round" stroke-linecap="round" stroke-width="1.5257" d="m201.638257,123.623588c-0.546907,-2.880967 -2.393865,-5.522548 -0.561567,4.129209c1.714187,9.029636 2.524636,19.994687 -0.495182,4.087729c-2.958681,-15.584778 -4.686695,-18.169552 -0.50018,3.882992c4.467465,23.532676 5.040194,33.707769 -0.644528,3.763216c-4.972809,-26.193915 -7.223325,-31.813417 -0.631784,2.907788c5.939434,31.286001 6.604369,41.583369 -0.73207,2.93894c-7.013841,-36.945567 -8.813905,-39.039825 -0.826275,3.035061c8.017699,42.232977 7.448385,46.647551 -1.288889,0.624121c-8.992153,-47.365877 -9.411788,-43.400341 -1.194684,-0.116611c9.26011,48.777708 7.60123,46.630393 -1.275978,-0.130438c-9.494165,-50.010457 -10.44738,-48.125767 -1.338365,-0.143848c9.554304,50.327556 8.641237,51.92255 -1.242578,-0.140184c-9.159408,-48.247376 -11.262744,-52.651371 -1.296302,-0.153011c9.246783,48.707491 7.927075,48.945295 -1.397587,-0.172335c-9.247449,-48.711073 -10.705758,-50.305317 -1.184355,-0.151428c10.124367,53.330216 8.359287,51.489172 -1.451895,-0.191159c-10.149855,-53.464569 -10.990206,-51.240707 -1.295552,-0.174167c10.475367,55.179173 9.63893,58.113448 -1.430405,-0.194158c-10.264634,-54.069199 -12.15707,-56.919681 -1.387009,-0.188244c10.550914,55.576984 9.828507,59.127218 -1.432904,-0.192409c-11.070002,-58.311188 -12.468255,-58.917151 -1.316293,-0.174251c11.469312,60.414358 9.563466,57.162066 -1.32104,-0.171752c-11.449322,-60.30974 -12.55813,-59.564594 -1.281226,-0.163756c11.945337,62.922418 10.217239,60.461002 -1.291721,-0.162256c-11.603332,-61.121023 -12.694815,-59.392759 -1.453644,-0.179665c11.423584,60.173972 10.058148,60.476495 -1.456559,-0.177416c-12.352061,-65.064736 -13.561321,-64.442781 -1.358273,-0.163256c12.33915,64.996352 11.669717,68.712423 -1.406583,-0.167254c-11.850298,-62.421489 -14.157205,-67.947536 -1.286557,-0.151345c12.597361,66.356624 10.811541,63.315982 -1.235831,-0.143765c-12.425776,-65.452552 -14.795485,-71.400316 -1.268232,-0.145764c13.261213,69.853549 11.047762,65.320532 -1.382678,-0.156426c-12.333319,-64.966449 -15.809088,-76.184131 -1.375015,-0.152927c13.085713,68.929404 13.241889,76.72171 -1.351109,-0.147097c-13.483191,-71.022661 -13.652028,-65.61889 -1.038508,0.82311c13.460119,70.900969 12.150573,70.785774 -1.109724,0.936972c-13.353836,-70.341318 -14.859039,-71.119449 -1.238746,0.625537c13.40781,70.625933 11.609829,68.609389 -1.290721,0.655273c-14.354361,-75.611319 -13.80787,-65.722008 -1.213341,0.619373c12.952193,68.226154 12.968435,74.535746 -1.07674,0.552738c-12.629846,-66.527876 -15.394035,-74.613542 -1.119469,0.577726c12.791685,67.379889 12.031129,69.588425 -1.073991,0.557402c-14.419247,-75.953407 -14.341784,-69.135223 -1.107225,0.577809c13.221981,69.64673 11.330128,67.041132 -1.270564,0.667184c-13.161427,-69.327715 -14.429242,-69.676217 -1.092066,0.57706c12.396706,65.299958 11.728606,68.587483 -1.173777,0.623871c-14.168449,-74.632284 -15.238109,-74.082627 -1.065911,0.56973c13.594638,71.609467 11.456235,66.459075 -1.053167,0.566232c-13.550492,-71.377577 -13.657109,-64.709155 -1.24466,0.673181c13.378324,70.470756 12.444767,72.415251 -1.180774,0.642695c-13.201325,-69.538282 -14.22434,-68.452297 -1.113389,0.609711c13.474695,70.977933 12.408867,71.782884 -1.103227,0.607878c-12.633177,-66.545451 -14.861204,-71.306194 -1.230417,0.493766c12.631595,66.537371 11.799406,69.449491 -1.396838,-0.062137c-13.265461,-69.875622 -13.556656,-64.537403 -1.315543,-0.057306c12.991591,68.433139 12.323491,72.213347 -1.397088,-0.059722c-13.715997,-72.24933 -13.474445,-64.618864 -1.216673,-0.051309c12.12117,63.84823 11.836971,68.953809 -1.263484,-0.052808c-12.505238,-65.871604 -12.837497,-60.965846 -1.273563,-0.053225c11.475143,60.445509 11.674882,68.106544 -1.264734,-0.053141c-12.922873,-68.070894 -13.367246,-63.090589 -1.401336,-0.059972c11.983818,63.124906 10.227318,60.356802 -1.241328,-0.054391c-11.032186,-58.111949 -12.644005,-59.623316 -1.33645,-0.060805c11.327963,59.670294 10.491859,61.435957 -1.18194,-0.05589c-12.055951,-63.504809 -11.673799,-54.754374 -1.291221,-0.06397c10.83403,57.068527 8.942011,53.931681 -1.309546,-0.068301c-10.391157,-54.7358 -12.139495,-57.515232 -1.233582,-0.067884c10.052068,52.94923 8.528207,51.484674 -1.259653,-0.072965c-11.377023,-59.928671 -11.754011,-54.761538 -1.373849,-0.083794c9.749128,51.353653 8.464737,50.976832 -1.227751,-0.07838c-10.976796,-57.820088 -11.88853,-56.452403 -1.186438,-0.078629c10.176842,53.606585 8.186119,49.298544 -1.188353,-0.081295c-10.386742,-54.711811 -11.589339,-53.863213 -1.382261,-0.097204c9.106766,47.969841 8.228432,50.215776 -1.322706,-0.094955c-9.043462,-47.636082 -10.062729,-46.1572 -1.318292,-0.096204c8.649233,45.56015 7.124456,44.350224 -1.313544,-0.096704c-8.704956,-45.853428 -9.989681,-45.608127 -1.350193,-0.100119c8.306062,43.752257 6.859914,42.814368 -1.286307,-0.095621c-9.356064,-49.283301 -9.74488,-45.23722 -1.173444,-0.087375c7.913748,41.68557 7.020672,44.131077 -1.376847,-0.102451c-8.900364,-46.882856 -9.341738,-42.777219 -1.238163,-0.091956c8.138808,42.871341 6.995683,44.146987 -1.277311,0.568897c-7.790723,-41.037544 -7.211248,-30.820721 -0.740899,3.262287c6.547896,34.490731 5.191039,34.239767 -0.649692,3.47402c-5.351629,-28.189885 -5.017621,-20.224745 -0.475191,3.702661c4.481375,23.605642 3.167248,22.99185 -0.35933,4.415407c-3.500091,-18.436676 -2.610346,-6.806356 -0.487852,4.373926c2.145899,11.303391 0.432212,8.370781 -0.530165,3.301351c-0.969624,-5.107329 -0.638031,2.937108 -0.601881,3.127017"/>
   <path stroke="null" id="svg_5" fill-opacity="0.1" fill="#FFF" d="m150.003487,28.10479l-106.61612,61.845679l106.61612,58.049979l106.61612,-57.670992l-106.61612,-62.224666m0,127.863547l-106.61612,56.532365l106.61612,61.465026l106.2363,-61.844846l-106.2363,-56.151712l0,-0.000833"/>
  </g>
 </g>
</svg>